<?xml version="1.0" encoding="UTF-8"?>
<svg width="32px" height="32px" viewBox="0 0 32 32" version="1.1" xmlns="http://www.w3.org/2000/svg" xmlns:xlink="http://www.w3.org/1999/xlink">
    <g stroke="none" stroke-width="1" fill="none" fill-rule="evenodd" transform="translate(0, -106)">
        <circle stroke="#575d6c" cx="16" cy="122" r="15.5"></circle>
        <path d="M23,128 L19.9048333,128 L19.9048333,123.778402 C19.9048333,122.675855 19.4218333,121.923293 18.3574444,121.923293 C17.5435,121.923293 17.0912222,122.431045 16.8800556,122.922477 C16.7999444,123.096564 16.8131667,123.343186 16.8131667,123.586182 L16.8131667,128 L13.7475556,128 C13.7475556,128 13.7883889,120.526974 13.7475556,119.847674 L16.8131667,119.847674 L16.8131667,121.126122 C16.9943889,120.567595 17.9736111,119.769335 19.5365556,119.769335 C21.4759444,119.769335 23,120.941518 23,123.466497 L23,128 L23,128 Z M10.6473333,118.82818 L10.6275,118.82818 C9.6405,118.82818 9,118.204008 9,117.414453 C9,116.610753 9.65877778,116 10.6671667,116 C11.6728333,116 12.2919444,116.609303 12.3121667,117.412639 C12.3121667,118.202557 11.6728333,118.82818 10.6473333,118.82818 L10.6473333,118.82818 Z M9.35194444,119.847674 L12.0823333,119.847674 L12.0823333,128 L9.35194444,128 L9.35194444,119.847674 Z" fill="#252b3a"></path>
    </g>
</svg>
