<?xml version="1.0" encoding="UTF-8"?>
<svg width="32px" height="32px" viewBox="0 0 32 32" version="1.1" xmlns="http://www.w3.org/2000/svg" xmlns:xlink="http://www.w3.org/1999/xlink">
    <g stroke="none" stroke-width="1" fill="none" fill-rule="evenodd">
        <circle stroke="#575d6c" cx="16" cy="16" r="15.5"></circle>
        <path d="M24,11.5404423 C23.5467121,12.2023881 22.998484,12.7663659 22.3553155,13.2323757 C22.3621376,13.3269393 22.3655486,13.4687849 22.3655486,13.6579122 C22.3655486,14.5358414 22.236877,15.4122576 21.9795338,16.2871607 C21.7221906,17.1620639 21.3312488,18.001222 20.8067084,18.804635 C20.2821679,19.608048 19.6577601,20.3189778 18.9334849,20.9374242 C18.2092098,21.5558707 17.3361759,22.0489257 16.3143832,22.4165893 C15.2925905,22.7842529 14.1995452,22.9682738 13.0352473,22.968652 C11.2012507,22.968652 9.52283494,22.4790013 8,21.4996999 C8.23687701,21.5265559 8.50085276,21.539984 8.79192723,21.539984 C10.3147622,21.539984 11.6717832,21.0739742 12.8629903,20.1419546 C12.1523593,20.1283374 11.5162024,19.9104627 10.9545196,19.4883304 C10.3928368,19.0661981 10.0070116,18.5275634 9.79704377,17.8724263 C10.0202767,17.9060909 10.2266439,17.9229233 10.4161455,17.9229233 C10.70722,17.9229233 10.9948835,17.8858543 11.2791359,17.8117164 C10.5211294,17.6562537 9.89331059,17.2797011 9.39567936,16.6820587 C8.89804813,16.0844162 8.64923252,15.3903188 8.64923252,14.5997665 L8.64923252,14.5594823 C9.10934243,14.8163173 9.60337313,14.9547585 10.1313246,14.974806 C9.68447982,14.6774978 9.3291643,14.2890302 9.06537806,13.8094032 C8.80159181,13.3297763 8.66969869,12.809676 8.66969869,12.2491025 C8.66969869,11.6548644 8.81864696,11.1043146 9.11654349,10.5974533 C9.93556945,11.6039891 10.9321584,12.4094825 12.1063104,13.0139336 C13.2804624,13.6183846 14.5376161,13.9544639 15.8777715,14.0221715 C15.823574,13.7653366 15.7964753,13.5154993 15.7964753,13.2726598 C15.7964753,12.3674963 16.116354,11.5958566 16.7561114,10.9577409 C17.3958689,10.3196252 18.1690354,10.0003783 19.0756111,10 C20.0231192,10 20.821679,10.3444009 21.4712905,11.0332028 C22.2088308,10.8913572 22.9025962,10.6279028 23.5525867,10.2428395 C23.3020656,11.0197747 22.8214895,11.6210106 22.1108584,12.0465471 C22.7403828,11.9788395 23.3697176,11.8099488 23.998863,11.5398749 L24,11.5404423 Z" fill="#252b3a"></path>
    </g>
</svg>
