<?xml version="1.0" encoding="UTF-8"?>
<svg width="32px" height="32px" viewBox="0 0 32 32" version="1.1" xmlns="http://www.w3.org/2000/svg" xmlns:xlink="http://www.w3.org/1999/xlink">
    <g stroke="none" stroke-width="1" fill="none" fill-rule="evenodd" transform="translate(8.000000, 10.000000)">
        <circle stroke="#575d6c" cx="8" cy="6" r="15.5"></circle>
        <path d="M11.4285714,5.71875 C11.4285714,5.49851191 11.3392857,5.33779762 11.1607143,5.23660714 L6.5892857,2.37946428 C6.40476189,2.26041667 6.21130951,2.25446429 6.00892856,2.36160714 C5.81249999,2.46874999 5.7142857,2.63541666 5.7142857,2.86160714 L5.7142857,8.57589286 C5.7142857,8.80208334 5.81249999,8.96875001 6.00892856,9.07589286 C6.10416666,9.12351191 6.19642856,9.14732144 6.28571428,9.14732144 C6.4047619,9.14732144 6.50595237,9.11755953 6.5892857,9.05803572 L11.1607143,6.20089286 C11.3392857,6.09970238 11.4285714,5.93898809 11.4285714,5.71875 Z M16,5.71875 C16,6.29017857 15.9970238,6.73660715 15.9910714,7.05803572 C15.985119,7.37946429 15.9598214,7.78571429 15.9151786,8.27678572 C15.8705357,8.76785715 15.8035714,9.20684524 15.7142857,9.59375 C15.6190476,10.0282738 15.4136905,10.3943452 15.0982143,10.6919643 C14.7827381,10.9895833 14.4136905,11.1622024 13.9910714,11.2098214 C12.6696428,11.3586309 10.672619,11.4330357 8,11.4330357 C5.32738096,11.4330357 3.33035715,11.3586309 2.00892858,11.2098214 C1.58630953,11.1622024 1.21577381,10.9895833 0.897321438,10.6919643 C0.578869063,10.3943452 0.372023823,10.0282738 0.276785719,9.59375 C0.193452385,9.20684524 0.129464292,8.76785715 0.0848214375,8.27678572 C0.0401785833,7.78571429 0.0148809635,7.37946429 0.00892857813,7.05803572 C0.00297619271,6.73660715 2.42701692e-13,6.29017857 2.42694753e-13,5.71875 C2.42687814e-13,5.14732143 0.00297619271,4.70089285 0.00892857813,4.37946428 C0.0148809635,4.05803571 0.0401785833,3.65178571 0.0848214375,3.16071428 C0.129464292,2.66964285 0.196428578,2.23065476 0.285714297,1.84375 C0.380952391,1.40922619 0.586309531,1.04315476 0.901785719,0.745535719 C1.21726191,0.447916677 1.58630953,0.27529763 2.00892858,0.227678578 C3.33035715,0.0788690573 5.32738096,0.00446429688 8,0.00446429688 C10.672619,0.00446429688 12.6696428,0.0788690573 13.9910714,0.227678578 C14.4136905,0.27529763 14.7842262,0.447916677 15.1026786,0.745535719 C15.4211309,1.04315476 15.6279762,1.40922619 15.7232143,1.84375 C15.8065476,2.23065476 15.8705357,2.66964285 15.9151786,3.16071428 C15.9598214,3.65178571 15.985119,4.05803571 15.9910714,4.37946428 C15.9970238,4.70089285 16,5.14732143 16,5.71875 Z" fill="#252b3a"></path>
    </g>
</svg>
