<svg height="512pt" viewBox="0 0 512 512" width="512pt" xmlns="http://www.w3.org/2000/svg"><path d="m503.464844 435.09375v34.132812c0 18.851563-15.28125 34.136719-34.132813 34.136719h-426.664062c-18.851563 0-34.132813-15.285156-34.132813-34.136719v-34.132812c0-4.710938 3.820313-8.53125 8.53125-8.53125h8.535156v-307.199219c.027344-9.414062 7.652344-17.039062 17.066407-17.066406h144.980469c13.347656-21.847656 25.207031-44.570313 35.5-68.011719.253906-.511718.425781-1.023437.679687-1.535156 1.632813-3.683594 4.972656-6.320312 8.933594-7.054688 3.957031-.734374 8.023437.53125 10.863281 3.382813l13.742188 13.824219 3.753906 3.839844 4.777344 4.78125c1.308593-.871094 2.675781-1.640626 4.097656-2.304688 11.628906-5.367188 25.378906-2.878906 34.386718 6.226562 10.296876 10.332032 11.9375 26.46875 3.925782 38.65625l8.105468 8.195313h152.917969c9.414063.027344 17.039063 7.652344 17.066407 17.066406v307.199219h8.535156c2.261718 0 4.433594.898438 6.035156 2.5 1.597656 1.597656 2.496094 3.769531 2.496094 6.03125zm0 0" fill="#00838f"/><path d="m477.867188 435.09375v34.132812c0 18.851563-15.28125 34.136719-34.132813 34.136719h-401.066406c-18.851563 0-34.132813-15.285156-34.132813-34.136719v-34.132812c0-4.710938 3.820313-8.53125 8.53125-8.53125h8.535156v-307.199219c.027344-9.414062 7.652344-17.039062 17.066407-17.066406h144.980469c13.347656-21.847656 25.207031-44.570313 35.5-68.011719l8.617187 8.617188 8.53125 8.621094c6.113281-4.113282 13.53125-5.816407 20.824219-4.78125 3.070312.351562 6.066406 1.1875 8.875 2.476562 3.253906 1.570312 6.226562 3.675781 8.789062 6.226562 4.765625 4.726563 7.800782 10.917969 8.617188 17.582032 1.066406 7.363281-.601563 14.859375-4.691406 21.074218l8.105468 8.195313h152.917969c9.414063.027344 17.039063 7.652344 17.066406 17.066406v307.199219h8.53125c2.265625 0 4.433594.898438 6.035157 2.5 1.601562 1.597656 2.5 3.769531 2.5 6.03125zm0 0" fill="#00bcd4"/><path d="m384 136.429688h59.734375c4.710937 0 8.53125 3.820312 8.53125 8.53125v281.601562h-392.53125v-281.601562c0-4.710938 3.820313-8.53125 8.53125-8.53125zm0 0" fill="#37474f"/><path d="m362.855469 136.429688h55.832031c4.554688.160156 8.121094 3.976562 7.980469 8.53125v281.601562h-366.933594v-281.601562c-.144531-4.554688 3.421875-8.371094 7.976563-8.53125zm0 0" fill="#607d8b"/><path d="m209.246094 194.566406-8.652344 8.695313c-2.289062 2.304687-5.40625 3.601562-8.652344 3.601562-3.25 0-6.363281-1.296875-8.652344-3.601562l-25.960937-26.085938c-4.78125-4.816406-4.78125-12.585937 0-17.398437l8.652344-8.695313zm0 0" fill="#d84315"/><path d="m165.625 150.714844 52.273438 52.546875c28.382812-28.527344 82.046874-54.742188 109.054687-66.859375 3.679687-1.664063 6.308594-5.03125 7.03125-9.003906.722656-3.972657-.546875-8.046876-3.402344-10.902344l-13.722656-13.792969-59.484375-59.792969-13.722656-13.796875c-2.832032-2.867187-6.902344-4.148437-10.867188-3.417969-3.964844.726563-7.3125 3.371094-8.9375 7.0625-10.949218 24.652344-33.460937 71.40625-58.761718 101.152344-4.230469 4.886719-3.996094 12.199219.539062 16.804688zm0 0" fill="#fdd834"/><path d="m265.925781 51.496094 42.382813 42.617187c8.015625-12.199219 6.394531-28.34375-3.890625-38.699219-10.25-10.328124-26.371094-11.96875-38.492188-3.917968zm0 0" fill="#d84315"/><path d="m217.898438 203.261719s18.175781 3.652343 47.863281 31.0625c4.828125 4.40625 12.277343 4.203125 16.863281-.453125l8.738281-8.78125c2.320313-2.339844 3.609375-5.511719 3.582031-8.808594-.03125-3.296875-1.375-6.445312-3.738281-8.746094-11.601562-11.800781-24.277343-22.5-37.859375-31.957031-12.738281 7.984375-24.617187 17.257813-35.449218 27.683594zm0 0" fill="#d84315"/><path d="m503.464844 435.09375v34.132812c0 18.851563-15.28125 34.136719-34.132813 34.136719h-426.664062c-18.851563 0-34.132813-15.285156-34.132813-34.136719v-34.132812c0-4.710938 3.820313-8.53125 8.53125-8.53125h477.867188c4.710937 0 8.53125 3.820312 8.53125 8.53125zm0 0" fill="#00695c"/><path d="m469.332031 435.09375v34.132812c.628907 18.195313-13.585937 33.464844-31.777343 34.136719h-397.242188c-18.191406-.671875-32.40625-15.941406-31.777344-34.136719v-34.132812c-.144531-4.542969 3.402344-8.351562 7.941406-8.53125h444.914063c4.539063.179688 8.085937 3.988281 7.941406 8.53125zm0 0" fill="#009688"/><path d="m313.71875 460.695312h-115.4375c-6.464844 0-12.375-3.65625-15.265625-9.4375l-12.347656-24.695312h170.664062l-12.347656 24.695312c-2.890625 5.78125-8.800781 9.4375-15.265625 9.4375zm0 0" fill="#2c3e50"/><path d="m214.613281 322.199219-1.28125 1.960937-59.730469 59.734375-5.632812 1.023438c-1.910156-2.816407-2.921875-6.148438-2.902344-9.554688v-85.335937c-.019531-3.40625.992188-6.738282 2.902344-9.554688l5.632812 1.023438zm0 0" fill="#ffb301"/><path d="m361.898438 387.394531c-3.160157 3.242188-7.503907 5.058594-12.03125 5.035157h-187.734376c-5.675781 0-10.980468-2.8125-14.164062-7.511719l5.632812-1.023438 59.730469-59.734375 1.28125-1.960937 41.386719 27.5625 41.386719-27.5625 1.28125 1.960937zm0 0" fill="#fdd834"/><path d="m366.933594 290.027344v85.335937c.023437 4.527344-1.792969 8.871094-5.035156 12.03125l-63.230469-63.234375-1.28125-1.960937 61.011719-40.703125 3.5-3.5c3.242187 3.160156 5.058593 7.503906 5.035156 12.03125zm0 0" fill="#ffb301"/><path d="m361.898438 277.996094-3.5 3.5-61.011719 40.703125-41.386719 27.5625-41.386719-27.5625-61.011719-40.703125-5.632812-1.023438c3.183594-4.699218 8.488281-7.511718 14.164062-7.511718h187.734376c4.527343-.023438 8.871093 1.792968 12.03125 5.035156zm0 0" fill="#fdd834"/><path d="m155.066406 149.945312-3.789062 3.8125c-8.074219 8.148438-8.074219 21.277344 0 29.425782l25.960937 26.101562c3.882813 3.925782 9.179688 6.125 14.703125 6.109375 5.519532.015625 10.816406-2.1875 14.691406-6.117187l2.5625-2.609375 2.558594 2.617187c.070313.070313.171875.09375.238282.164063.664062.605469 1.414062 1.105469 2.230468 1.484375.277344.121094.5625.222656.851563.316406.316406.136719.636719.253906.964843.355469.171876 0 16.835938 4.046875 43.859376 29.015625 3.792968 3.519531 8.773437 5.472656 13.945312 5.46875 5.546875-.003906 10.859375-2.230469 14.753906-6.175782l8.816406-8.765624c3.925782-3.960938 6.109376-9.328126 6.058594-14.910157-.050781-5.578125-2.332031-10.90625-6.332031-14.792969-10.695313-10.351562-20.40625-18.953124-28.441406-25.285156 19.960937-11.8125 40.578125-22.472656 61.753906-31.933594 6.234375-2.8125 10.691406-8.511718 11.921875-15.238281 1.230469-6.730469-.917969-13.632812-5.753906-18.476562l-17.851563-17.917969c6.351563-14.695312 3.113281-31.777344-8.167969-43.132812-11.285156-11.355469-28.347656-14.699219-43.082031-8.445313l-17.816406-17.917969c-4.820313-4.863281-11.730469-7.027344-18.464844-5.789062-6.730469 1.238281-12.417969 5.726562-15.191406 11.984375-10.941406 24.644531-32.957031 70.28125-57.464844 99.097656-5.128906 5.953125-6.488281 14.28125-3.515625 21.554687zm143.308594-88.515624c4.472656 4.515624 6.808594 10.722656 6.425781 17.066406l-23.371093-23.5c6.308593-.375 12.476562 1.964844 16.945312 6.433594zm-103.816406 135.816406c-.6875.691406-1.625 1.082031-2.601563 1.082031-.976562 0-1.914062-.390625-2.601562-1.082031l-25.960938-26.09375c-1.46875-1.480469-1.46875-3.871094 0-5.351563l2.5625-2.621093 31.222657 31.386718zm90.738281 16.425781c.722656.699219 1.128906 1.664063 1.125 2.671875.019531 1.019531-.375 2.003906-1.09375 2.730469l-8.738281 8.78125c-1.34375 1.414062-3.574219 1.5-5.023438.195312-11.316406-10.867187-24.046875-20.160156-37.847656-27.621093.257812-.214844.496094-.429688.761719-.640626 2.558593-2.082031 5.1875-4.199218 8.046875-6.332031.578125-.425781 1.183594-.855469 1.765625-1.273437 2.277343-1.703125 4.675781-3.351563 7.160156-5.050782l1.875-1.269531c11.246094 8.5625 21.917969 17.851563 31.949219 27.808594zm-113.699219-74.238281c25.90625-30.449219 48.75-77.738282 60.066406-103.253906.476563-1.117188 1.484376-1.921876 2.679688-2.132813 1.199219-.222656 2.429688.171875 3.277344 1.046875l86.902344 87.417969c.910156.882812 1.308593 2.167969 1.058593 3.414062-.203125 1.199219-1 2.21875-2.117187 2.703125-25.835938 11.421875-50.804688 24.714844-74.699219 39.773438h-.054687c-.210938.128906-.382813.265625-.597657.394531-3.269531 2.132813-6.476562 4.304687-9.625 6.519531-.324219.21875-.65625.441406-.964843.664063-3.042969 2.167969-5.996094 4.363281-8.863282 6.585937l-1.640625 1.300782c-2.273437 1.796874-4.46875 3.613281-6.585937 5.449218-.511719.4375-1.042969.855469-1.535156 1.316406-.265626.230469-.554688.460938-.855469.699219l-29.457031-29.601562-16.554688-16.667969-.347656-.347656c-1.414063-1.457032-1.460938-3.761719-.105469-5.273438zm0 0"/><path d="m494.933594 418.027344v-298.664063c0-14.140625-11.460938-25.601562-25.601563-25.601562h-85.332031c-4.710938 0-8.535156 3.820312-8.535156 8.535156 0 4.710937 3.824218 8.53125 8.535156 8.53125h85.332031c4.714844 0 8.535157 3.820313 8.535157 8.535156v298.664063h-17.066407v-273.066406c0-9.425782-7.640625-17.066407-17.066406-17.066407h-59.734375c-4.710938 0-8.535156 3.820313-8.535156 8.535157 0 4.710937 3.824218 8.53125 8.535156 8.53125h59.734375v273.066406h-375.46875v-273.066406h51.199219c4.714844 0 8.535156-3.820313 8.535156-8.53125 0-4.714844-3.820312-8.535157-8.535156-8.535157h-51.199219c-9.425781 0-17.066406 7.640625-17.066406 17.066407v273.066406h-17.066407v-298.664063c0-4.714843 3.820313-8.535156 8.535157-8.535156h102.398437c4.714844 0 8.535156-3.820313 8.535156-8.53125 0-4.714844-3.820312-8.535156-8.535156-8.535156h-102.398437c-14.140625 0-25.601563 11.460937-25.601563 25.601562v298.664063c-9.425781 0-17.066406 7.640625-17.066406 17.066406v34.132812c.0273438 23.554688 19.113281 42.640626 42.667969 42.667969h426.664062c23.554688-.027343 42.640625-19.113281 42.667969-42.667969v-34.132812c0-9.425781-7.640625-17.066406-17.066406-17.066406zm-167.40625 17.066406-6.179688 12.347656c-1.445312 2.890625-4.398437 4.71875-7.628906 4.71875h-115.4375c-3.230469 0-6.183594-1.828125-7.628906-4.71875l-6.179688-12.347656zm141.804687 59.734375h-426.664062c-14.140625 0-25.601563-11.460937-25.601563-25.601563h93.867188c4.710937 0 8.53125-3.820312 8.53125-8.53125 0-4.714843-3.820313-8.535156-8.53125-8.535156h-93.867188v-17.066406h148.328125l9.992188 19.988281c4.308593 8.691407 13.1875 14.179688 22.894531 14.144531h115.4375c9.707031.035157 18.585938-5.453124 22.894531-14.144531l9.992188-19.988281h148.328125v17.066406h-93.867188c-4.710937 0-8.53125 3.820313-8.53125 8.535156 0 4.710938 3.820313 8.53125 8.53125 8.53125h93.867188c0 14.140626-11.460938 25.601563-25.601563 25.601563zm0 0"/><path d="m153.601562 452.160156h-8.535156c-4.710937 0-8.53125 3.820313-8.53125 8.535156 0 4.710938 3.820313 8.53125 8.53125 8.53125h8.535156c4.710938 0 8.53125-3.820312 8.53125-8.53125 0-4.714843-3.820312-8.535156-8.53125-8.535156zm0 0"/><path d="m366.933594 452.160156h-8.535156c-4.710938 0-8.53125 3.820313-8.53125 8.535156 0 4.710938 3.820312 8.53125 8.53125 8.53125h8.535156c4.710937 0 8.53125-3.820312 8.53125-8.53125 0-4.714843-3.820313-8.535156-8.53125-8.535156zm0 0"/><path d="m343.832031 2.394531-17.066406 17.066407c-2.21875 2.144531-3.105469 5.316406-2.324219 8.300781s3.109375 5.3125 6.09375 6.09375 6.15625-.109375 8.296875-2.328125l17.066407-17.066406c3.234374-3.347657 3.1875-8.671876-.101563-11.960938-3.292969-3.292969-8.613281-3.339844-11.964844-.105469zm0 0"/><path d="m366.933594 42.5625h-17.066406c-4.714844 0-8.535157 3.820312-8.535157 8.53125 0 4.714844 3.820313 8.535156 8.535157 8.535156h17.066406c4.710937 0 8.53125-3.820312 8.53125-8.535156 0-4.710938-3.820313-8.53125-8.53125-8.53125zm0 0"/><path d="m349.867188 264.429688h-187.734376c-14.136718 0-25.597656 11.460937-25.597656 25.597656v85.335937c0 14.136719 11.460938 25.597657 25.597656 25.597657h187.734376c14.136718 0 25.597656-11.460938 25.597656-25.597657v-85.335937c0-14.136719-11.460938-25.597656-25.597656-25.597656zm-93.867188 75.09375-87.039062-58.027344h174.078124zm-102.398438-47.789063 48.042969 32.027344-48.042969 48.066406zm62.523438 41.6875 35.140625 23.421875c2.867187 1.914062 6.601563 1.914062 9.46875 0l35.140625-23.421875 50.457031 50.472656h-180.664062zm94.230469-9.644531 48.042969-32.042969v80.078125zm0 0"/><path d="m396.347656 222.65625c-2.023437-1.011719-4.371094-1.175781-6.519531-.460938-2.144531.71875-3.921875 2.257813-4.933594 4.285157l-8.53125 17.066406c-2.105469 4.21875-.394531 9.34375 3.824219 11.453125 4.214844 2.105469 9.34375.394531 11.449219-3.824219l8.535156-17.066406c1.011719-2.023437 1.175781-4.371094.460937-6.519531-.71875-2.144532-2.257812-3.921875-4.285156-4.933594zm0 0"/><path d="m392.535156 272.960938c0 4.714843 3.820313 8.535156 8.53125 8.535156h8.535156c4.710938 0 8.53125-3.820313 8.53125-8.535156 0-4.710938-3.820312-8.53125-8.53125-8.53125h-8.535156c-4.710937 0-8.53125 3.820312-8.53125 8.53125zm0 0"/><path d="m128 255.894531c2.957031 0 5.699219-1.53125 7.253906-4.046875 1.554688-2.515625 1.695313-5.65625.375-8.300781l-8.535156-17.066406c-1.359375-2.726563-4.074219-4.523438-7.121094-4.707031-3.042968-.183594-5.953125 1.269531-7.636718 3.816406-1.679688 2.542968-1.878907 5.792968-.515626 8.519531l8.535157 17.066406c1.445312 2.894531 4.40625 4.722657 7.644531 4.71875zm0 0"/><path d="m102.398438 264.429688c-4.710938 0-8.53125 3.820312-8.53125 8.53125 0 4.714843 3.820312 8.535156 8.53125 8.535156h8.535156c4.710937 0 8.53125-3.820313 8.53125-8.535156 0-4.710938-3.820313-8.53125-8.53125-8.53125zm0 0"/></svg>