<svg height="512" viewBox="0 0 64 64" width="512" xmlns="http://www.w3.org/2000/svg"><g id="Filled_outline" data-name="Filled outline"><rect fill="#f4f4e6" height="48" rx="2" width="58" x="3" y="3"/><path d="m3 43h58a0 0 0 0 1 0 0v6a2 2 0 0 1 -2 2h-54a2 2 0 0 1 -2-2v-6a0 0 0 0 1 0 0z" fill="#aabece"/><path d="m58 12h-2v-4h-3v-2h4a1 1 0 0 1 1 1z" fill="#7fcac9"/><path d="m57 40h-5v-2h4v-2h2v3a1 1 0 0 1 -1 1z" fill="#7fcac9"/><path d="m48 38h2v2h-2z" fill="#7fcac9"/><path d="m8 13h-2v-6a1 1 0 0 1 1-1h5v2h-4z" fill="#7fcac9"/><path d="m6 15h2v2h-2z" fill="#7fcac9"/><path d="m27 51h10l4 6h-18z" fill="#5a6470"/><path d="m14 57h36v4h-36z" fill="#aabece"/><circle cx="32" cy="47" fill="#394d5c" r="2"/><path d="m32 40a17.188 17.188 0 0 1 -14.866-8.5l1.732-1a15.179 15.179 0 0 0 13.134 7.5z" fill="#87cee9"/><path d="m49 23h-2a14.993 14.993 0 0 0 -15-15 14.6 14.6 0 0 0 -12.174 6.563l-1.652-1.126a16.566 16.566 0 0 1 13.826-7.437 16.994 16.994 0 0 1 17 17z" fill="#87cee9"/><path d="m21 22.938h-2a13 13 0 0 1 22.75-8.6l-1.5 1.324a11 11 0 0 0 -19.25 7.276z" fill="#87cee9"/><path d="m32 36a12.9 12.9 0 0 1 -5.417-1.091l.834-1.818a11.4 11.4 0 0 0 12.833-2.753l1.5 1.324a12.982 12.982 0 0 1 -9.75 4.338z" fill="#87cee9"/><path d="m32 32a9.011 9.011 0 0 1 -9-9h2a7 7 0 1 0 14 0 6.9 6.9 0 0 0 -.866-3.5l1.732-1a8.869 8.869 0 0 1 1.134 4.5 9 9 0 0 1 -9 9z" fill="#87cee9"/><circle cx="29" cy="19" fill="#e1462b" r="2"/><circle cx="14" cy="26" fill="#e1462b" r="2"/><circle cx="43" cy="37" fill="#e1462b" r="2"/><path d="m19 25h2v2h-2z" fill="#ffd782"/><path d="m11 16h6v2h-6z" fill="#195c85"/><path d="m13 14h2v6h-2z" fill="#195c85"/><path d="m43 27h6v2h-6z" fill="#195c85"/><path d="m45 25h2v6h-2z" fill="#195c85"/><g fill="#ffd782"><path d="m6 38h12v2h-12z"/><path d="m6 34h4v2h-4z"/><path d="m12 34h4v2h-4z"/><path d="m6 30h5v2h-5z"/><path d="m50 14h8v2h-8z"/><path d="m55 18h3v2h-3z"/><path d="m51 18h2v2h-2z"/><path d="m52 22h6v2h-6z"/><path d="m51 26h7v2h-7z"/></g><path d="m57 6h-4v2h3v4h2v-5a1 1 0 0 0 -1-1z"/><path d="m56 38h-4v2h5a1 1 0 0 0 1-1v-3h-2z"/><path d="m48 38h2v2h-2z"/><path d="m8 8h4v-2h-5a1 1 0 0 0 -1 1v6h2z"/><path d="m6 15h2v2h-2z"/><path d="m59 2h-54a3 3 0 0 0 -3 3v44a3 3 0 0 0 3 3h20.132l-2.667 4h-8.465a1 1 0 0 0 -1 1v4a1 1 0 0 0 1 1h36a1 1 0 0 0 1-1v-4a1 1 0 0 0 -1-1h-8.465l-2.667-4h20.132a3 3 0 0 0 3-3v-44a3 3 0 0 0 -3-3zm-10 58h-34v-2h34zm-9.869-4h-14.262l2.666-4h8.93zm20.869-7a1 1 0 0 1 -1 1h-54a1 1 0 0 1 -1-1v-5h56zm-56-7v-37a1 1 0 0 1 1-1h54a1 1 0 0 1 1 1v37z"/><path d="m35 47a3 3 0 1 0 -3 3 3 3 0 0 0 3-3zm-3 1a1 1 0 1 1 1-1 1 1 0 0 1 -1 1z"/><path d="m18.866 30.5-1.732 1a17.188 17.188 0 0 0 14.866 8.5v-2a15.179 15.179 0 0 1 -13.134-7.5z"/><path d="m32 8a14.993 14.993 0 0 1 15 15h2a16.994 16.994 0 0 0 -17-17 16.566 16.566 0 0 0 -13.826 7.437l1.652 1.126a14.6 14.6 0 0 1 12.174-6.563z"/><path d="m32 9.938a13.014 13.014 0 0 0 -13 13h2a11 11 0 0 1 19.25-7.276l1.5-1.324a13.013 13.013 0 0 0 -9.75-4.4z"/><path d="m41.75 31.662-1.5-1.324a11.4 11.4 0 0 1 -12.833 2.753l-.834 1.818a13.4 13.4 0 0 0 15.167-3.247z"/><path d="m23 23a9 9 0 1 0 18 0 8.869 8.869 0 0 0 -1.134-4.5l-1.732 1a6.9 6.9 0 0 1 .866 3.5 7 7 0 0 1 -14 0z"/><path d="m32 19a3 3 0 1 0 -3 3 3 3 0 0 0 3-3zm-4 0a1 1 0 1 1 1 1 1 1 0 0 1 -1-1z"/><path d="m17 26a3 3 0 1 0 -3 3 3 3 0 0 0 3-3zm-3 1a1 1 0 1 1 1-1 1 1 0 0 1 -1 1z"/><path d="m43 34a3 3 0 1 0 3 3 3 3 0 0 0 -3-3zm0 4a1 1 0 1 1 1-1 1 1 0 0 1 -1 1z"/><path d="m19 25h2v2h-2z"/><path d="m11 16v2h2v2h2v-2h2v-2h-2v-2h-2v2z"/><path d="m49 29v-2h-2v-2h-2v2h-2v2h2v2h2v-2z"/><path d="m6 38h12v2h-12z"/><path d="m6 34h4v2h-4z"/><path d="m12 34h4v2h-4z"/><path d="m6 30h5v2h-5z"/><path d="m50 14h8v2h-8z"/><path d="m55 18h3v2h-3z"/><path d="m51 18h2v2h-2z"/><path d="m52 22h6v2h-6z"/><path d="m51 26h7v2h-7z"/></g></svg>