<svg height="512pt" viewBox="0 0 512 512" width="512pt" xmlns="http://www.w3.org/2000/svg"><path d="m502 255.984375c0-135.851563-110.136719-245.984375-246-245.984375s-246 110.132812-246 245.984375c0 135.855469 110.136719 245.988281 246 245.988281s246-110.132812 246-245.988281zm0 0" fill="#0082a0"/><path d="m256 511.972656c-68.378906 0-132.667969-26.628906-181.019531-74.976562-48.351563-48.351563-74.980469-112.632813-74.980469-181.011719 0-68.375 26.628906-132.660156 74.980469-181.007813 48.351562-48.347656 112.640625-74.976562 181.019531-74.976562s132.667969 26.628906 181.019531 74.976562c48.351563 48.347657 74.980469 112.632813 74.980469 181.007813 0 68.378906-26.628906 132.660156-74.980469 181.011719-48.351562 48.347656-112.640625 74.976562-181.019531 74.976562zm0-491.972656c-130.132812 0-236 105.863281-236 235.984375 0 130.125 105.867188 235.988281 236 235.988281s236-105.863281 236-235.988281c0-130.121094-105.867188-235.984375-236-235.984375zm0 0"/><path d="m256 461.921875c-113.558594 0-205.945312-92.382813-205.945312-205.9375 0-113.550781 92.386718-205.933594 205.945312-205.933594s205.945312 92.382813 205.945312 205.933594c0 113.554687-92.386718 205.9375-205.945312 205.9375zm0 0" fill="#92d8f3"/><path d="m423.238281 145.894531c-.648437 0-1.308593-.070312-1.949219-.199219-.640624-.121093-1.269531-.320312-1.867187-.570312-.613281-.25-1.191406-.558594-1.730469-.917969-.550781-.359375-1.0625-.78125-1.519531-1.242187-.460937-.457032-.882813-.96875-1.242187-1.519532-.359376-.539062-.667969-1.121093-.917969-1.730468-.25-.597656-.453125-1.230469-.570313-1.867188-.132812-.640625-.199218-1.300781-.199218-1.953125 0-.648437.066406-1.308593.199218-1.949219.117188-.640624.320313-1.269531.570313-1.871093.25-.609375.558593-1.1875.917969-1.726563.359374-.550781.78125-1.0625 1.242187-1.523437.457031-.457031.96875-.878907 1.519531-1.238281.539063-.359376 1.117188-.671876 1.730469-.921876.597656-.25 1.226563-.449218 1.867187-.566406 1.289063-.261718 2.621094-.261718 3.902344 0 .640625.117188 1.269532.316406 1.878906.566406.601563.25 1.179688.5625 1.71875.921876.550782.359374 1.0625.78125 1.523438 1.238281.457031.460937.878906.972656 1.25 1.523437.359375.539063.667969 1.117188.917969 1.726563.25.601562.441406 1.230469.570312 1.871093.128907.640626.191407 1.300782.191407 1.949219 0 .652344-.0625 1.3125-.191407 1.953125-.128906.636719-.320312 1.269532-.570312 1.867188-.25.609375-.558594 1.191406-.917969 1.730468-.371094.550782-.792969 1.0625-1.25 1.519532-.460938.460937-.972656.882812-1.523438 1.242187-.539062.359375-1.117187.667969-1.71875.917969-.609374.25-1.238281.449219-1.878906.570312-.640625.128907-1.300781.199219-1.953125.199219zm0 0"/><path d="m412.65625 255.984375c0 86.519531-70.136719 156.660156-156.65625 156.660156s-156.65625-70.140625-156.65625-156.660156 70.136719-156.65625 156.65625-156.65625 156.65625 70.136719 156.65625 156.65625zm0 0" fill="#dae9ec"/><path d="m323.214844 313.277344c19.230468-17.53125 13.417968-49.601563 13.417968-65.585938 0-59.375-31.152343-102.953125-80.632812-102.953125s-80.632812 43.574219-80.632812 102.953125c0 15.988282-5.8125 48.054688 13.417968 65.585938" fill="#f2484b"/><path d="m221.574219 306.992188h-15.316407c-10.964843 0-19.855468 8.890624-19.855468 19.855468v40.386719h139.195312v-40.386719c0-10.964844-8.890625-19.855468-19.855468-19.855468h-16.21875" fill="#5fd696"/><path d="m296.605469 259.847656c2.839843-5.242187 5.300781-26.109375 6.050781-41.402344-7.078125 4.324219-15.390625 6.816407-24.292969 6.816407-21.5625 0-39.707031-7.34375-45.046875-27.222657-4.382812 11.292969-13.03125 20.453126-23.972656 25.503907.609375 16.175781 3.167969 30.8125 6.144531 36.304687 3.878907 7.167969 10.578125 15.742188 19.367188 21.578125 0 25.566407-10.28125 25.566407-10.28125 25.566407s9.042969 19.484374 11.746093 27.328124h39.453126c2.703124-7.84375 11.746093-27.328124 11.746093-27.328124s-10.28125 0-10.28125-25.566407c8.785157-5.835937 15.484375-14.410156 19.367188-21.578125zm0 0" fill="#fdd1a3"/><path d="m455.050781 172.257812c-2.148437-5.085937-8.015625-7.472656-13.101562-5.324218-5.089844 2.148437-7.472657 8.015625-5.324219 13.101562 8.875 21.015625 13.929688 43.15625 15.070312 65.949219h-29.335937c-4.992187-83.949219-72.410156-151.367187-156.359375-156.359375v-29.316406c42.902344 2.207031 84.101562 18.539062 116.960938 46.554687 4.203124 3.582031 10.511718 3.078125 14.097656-1.125 3.582031-4.203125 3.078125-10.511719-1.121094-14.09375-39.023438-33.269531-88.71875-51.59375-139.9375-51.59375-119.070312 0-215.945312 96.871094-215.945312 215.933594 0 119.066406 96.875 215.9375 215.945312 215.9375s215.945312-96.871094 215.945312-215.9375c0-29.003906-5.683593-57.175781-16.894531-83.726563zm-52.394531 83.726563c0 80.867187-65.789062 146.660156-146.65625 146.660156s-146.65625-65.792969-146.65625-146.660156 65.789062-146.65625 146.65625-146.65625 146.65625 65.789063 146.65625 146.65625zm-156.65625-195.679687v29.320312c-83.949219 4.992188-151.367188 72.410156-156.359375 156.359375h-29.332031c5.054687-100.09375 85.585937-180.625 185.691406-185.679687zm-185.691406 205.679687h29.332031c4.992187 83.949219 72.410156 151.371094 156.359375 156.363281v29.320313c-100.105469-5.058594-180.636719-85.585938-185.691406-185.683594zm205.691406 185.683594v-29.320313c83.949219-4.992187 151.367188-72.414062 156.359375-156.363281h29.332031c-5.054687 100.097656-85.585937 180.625-185.691406 185.683594zm0 0"/><path d="m189.179688 167.882812c-15.578126 20.417969-23.8125 48.015626-23.8125 79.808594 0 2.449219-.164063 5.5625-.335938 8.859375-.90625 17.140625-2.238281 42.417969 13.144531 60.152344-1.148437 3.167969-1.773437 6.585937-1.773437 10.144531v40.386719c0 5.523437 4.476562 10 10 10h139.195312c5.519532 0 10-4.476563 10-10v-40.386719c0-3.558594-.628906-6.976562-1.777344-10.144531 15.386719-17.730469 14.050782-43.011719 13.148438-60.152344-.175781-3.296875-.339844-6.410156-.339844-8.859375 0-31.792968-8.230468-59.390625-23.808594-79.808594-16.304687-21.375-40.039062-33.144531-66.820312-33.144531-26.785156 0-50.515625 11.769531-66.820312 33.144531zm126.417968 189.351563h-119.195312v-30.386719c0-5.4375 4.421875-9.855468 9.855468-9.855468h11.894532c3.039062 6.730468 7.175781 16.121093 8.714844 20.585937 1.390624 4.035156 5.1875 6.742187 9.453124 6.742187h39.453126c4.269531 0 8.066406-2.707031 9.457031-6.742187 1.535156-4.460937 5.671875-13.855469 8.714843-20.585937h11.796876c5.433593 0 9.855468 4.417968 9.855468 9.855468zm-28.074218-60.042969v-.199218s.582031.03125.761718.039062c.039063.003906.089844.011719.148438.019531-.308594.035157-.613282.082031-.910156.140625zm-15.820313-24.09375c-2.789063 1.851563-4.464844 4.980469-4.464844 8.328125 0 15.441407 3.515625 24.191407 7.660157 29.148438-1.859376 4.136719-4.125 9.273437-5.96875 13.746093h-25.765626c-1.84375-4.472656-4.109374-9.605468-5.96875-13.746093 4.144532-4.953125 7.660157-13.707031 7.660157-29.148438 0-3.347656-1.675781-6.476562-4.46875-8.328125-6.210938-4.128906-12.234375-10.863281-16.109375-18.011718-1.414063-2.613282-3.644532-12.246094-4.605469-25.761719 4.9375-3.054688 9.339844-6.816407 13.085937-11.167969 9.625 11.148438 25.230469 17.105469 45.605469 17.105469 4.433594 0 8.820313-.519531 13.082031-1.527344-1.101562 10.480469-2.585937 19.035156-3.667968 21.410156-3.875 7.128907-9.878906 13.835938-16.074219 17.953125zm54.929687-25.40625c0 2.976563.175782 6.34375.363282 9.914063.714844 13.558593 1.660156 31.480469-6.324219 43.394531-4.394531-2.546875-9.496094-4.007812-14.929687-4.007812h-15.929688c-.6875-1.167969-1.96875-4.152344-2.414062-10.644532 7.117187-5.769531 13.515624-13.453125 18-21.734375 0 0 0 0 0-.003906 5.449218-10.054687 7.175781-44.226563 7.246093-45.675781.179688-3.699219-1.699219-7.199219-4.886719-9.085938-3.1875-1.894531-7.15625-1.867187-10.316406.066406-5.726562 3.5-12.320312 5.347657-19.074218 5.347657-19.953126 0-31.859376-6.664063-35.390626-19.816407-1.121093-4.175781-4.800781-7.15625-9.121093-7.390624-4.316407-.238282-8.296875 2.335937-9.859375 6.371093-3.40625 8.78125-10.273438 16.085938-18.839844 20.039063-3.667969 1.691406-5.957031 5.421875-5.804688 9.457031.53125 14.09375 2.738282 32.1875 7.34375 40.691406 4.484376 8.28125 10.878907 15.964844 18 21.738281-.449218 6.472657-1.742187 9.480469-2.4375 10.664063-.226562-.011719-.453124-.023437-.683593-.023437h-15.3125c-5.4375 0-10.535157 1.460937-14.933594 4.007812-7.984375-11.914062-7.039063-29.835938-6.324219-43.394531.1875-3.566407.367188-6.933594.367188-9.914063 0-55.597656 28.382812-92.953125 70.628906-92.953125s70.632812 37.355469 70.632812 92.953125zm0 0"/></svg>