<svg id="Capa_1" enable-background="new 0 0 512 512" height="512" viewBox="0 0 512 512" width="512" xmlns="http://www.w3.org/2000/svg"><path d="m146.902 7.5h282.846v497h-282.846z" fill="#665e66"/><path d="m410.555 7.5h19.193v497h-19.193z" fill="#544f57"/><path d="m146.902 474.195v-436.39h70.16l9.31 20.482c3.278 7.212 10.47 11.843 18.392 11.843h43.56 43.56c7.923 0 15.114-4.631 18.392-11.843l9.31-20.482h70.16v436.39z" fill="#90d8f9"/><path d="m324.691 106.496h-177.789v197.992h109.647l52.081 52.081c8.909 8.909 24.142 2.599 24.142-10v-42.936c17.299-3.721 30.305-19.135 30.305-37.53v-121.22c0-21.201-17.186-38.387-38.386-38.387z" fill="#75cef9"/><path d="m410.555 37.805h19.193v436.39h-19.193z" fill="#75cef9"/><path d="m324.691 124.679h-222.236c-11.158 0-20.203 9.045-20.203 20.203v121.22c0 11.158 9.045 20.203 20.203 20.203h161.626l50.508 50.508v-50.508h10.102c11.158 0 20.203-9.045 20.203-20.203v-121.22c0-11.158-9.045-20.203-20.203-20.203z" fill="#f4dd45"/><path d="m193.37 382.27h40.407v40.407h-40.407z" fill="#e27a66"/><path d="m268.122 382.27h40.407v40.407h-40.407z" fill="#aad540"/><path d="m342.874 382.27h40.407v40.407h-40.407z" fill="#a2f4c1"/><circle cx="260.041" cy="35.785" r="10.102"/><path d="m287.315 43.285h39.396c4.143 0 7.5-3.358 7.5-7.5s-3.357-7.5-7.5-7.5h-39.396c-4.143 0-7.5 3.358-7.5 7.5s3.358 7.5 7.5 7.5z"/><path d="m132.76 147.484c-4.143 0-7.5 3.358-7.5 7.5v80.813c0 15.275 12.428 27.703 27.704 27.703h20.203c15.275 0 27.703-12.428 27.703-27.703v-80.813c0-4.142-3.357-7.5-7.5-7.5s-7.5 3.358-7.5 7.5v80.813c0 7.004-5.698 12.703-12.703 12.703h-20.203c-7.005 0-12.704-5.699-12.704-12.703v-80.813c0-4.142-3.358-7.5-7.5-7.5z"/><path d="m229.918 262.431c1.208.725 2.538 1.07 3.852 1.07 2.548 0 5.032-1.298 6.438-3.642l23.873-39.789 23.873 39.789c1.407 2.344 3.891 3.642 6.438 3.642 1.313 0 2.644-.345 3.852-1.07 3.552-2.131 4.704-6.738 2.573-10.29l-27.989-46.649 27.989-46.649c2.131-3.552.979-8.159-2.573-10.29s-8.159-.979-10.29 2.572l-23.873 39.789-23.873-39.789c-2.133-3.552-6.738-4.702-10.29-2.572-3.552 2.131-4.704 6.738-2.573 10.29l27.989 46.649-27.989 46.649c-2.131 3.552-.979 8.159 2.573 10.29z"/><path d="m193.37 374.771c-4.143 0-7.5 3.358-7.5 7.5v40.406c0 4.142 3.357 7.5 7.5 7.5h40.406c4.143 0 7.5-3.358 7.5-7.5v-40.406c0-4.142-3.357-7.5-7.5-7.5zm32.906 40.406h-25.406v-25.406h25.406z"/><path d="m308.528 374.771h-40.406c-4.143 0-7.5 3.358-7.5 7.5v40.406c0 4.142 3.357 7.5 7.5 7.5h40.406c4.143 0 7.5-3.358 7.5-7.5v-40.406c0-4.143-3.357-7.5-7.5-7.5zm-7.5 40.406h-25.406v-25.406h25.406z"/><path d="m342.874 374.771c-4.143 0-7.5 3.358-7.5 7.5v40.406c0 4.142 3.357 7.5 7.5 7.5h40.406c4.143 0 7.5-3.358 7.5-7.5v-40.406c0-4.142-3.357-7.5-7.5-7.5zm32.906 40.406h-25.406v-25.406h25.406z"/><path d="m437.248 474.195c0-.76-.115-1.492-.325-2.184v-316.428c0-4.142-3.357-7.5-7.5-7.5s-7.5 3.358-7.5 7.5v311.112h-267.846v-101.028c0-4.142-3.357-7.5-7.5-7.5s-7.5 3.358-7.5 7.5v138.833c0 4.142 3.357 7.5 7.5 7.5h282.846c4.143 0 7.5-3.358 7.5-7.5v-28.121c.21-.691.325-1.424.325-2.184zm-283.171 22.805v-15.305h267.846v15.305z"/><path d="m139.08 330.44c0 4.142 3.357 7.5 7.5 7.5s7.5-3.358 7.5-7.5v-36.635h106.895l48.312 48.312c1.436 1.435 3.354 2.197 5.306 2.197.966 0 1.94-.187 2.868-.571 2.803-1.161 4.63-3.896 4.63-6.929v-43.008h2.602c15.275 0 27.703-12.428 27.703-27.703v-121.221c0-15.276-12.428-27.704-27.703-27.704h-93.193c-4.143 0-7.5 3.358-7.5 7.5s3.357 7.5 7.5 7.5h93.191c7.005 0 12.703 5.699 12.703 12.704v121.219c0 7.004-5.698 12.703-12.703 12.703h-10.101c-4.143 0-7.5 3.358-7.5 7.5v32.402l-37.705-37.705c-1.407-1.407-3.314-2.197-5.304-2.197h-117.404c-.032 0-.064-.005-.097-.005s-.064.004-.097.005h-44.028c-7.005 0-12.703-5.699-12.703-12.703v-121.219c0-7.005 5.698-12.704 12.703-12.704h94.128c4.143 0 7.5-3.358 7.5-7.5s-3.357-7.5-7.5-7.5h-42.503v-71.873h57.831l7.312 16.086c4.484 9.865 14.384 16.239 25.221 16.239h87.113c10.837 0 20.736-6.375 25.221-16.239l7.312-16.086h57.831v75.166c0 4.142 3.357 7.5 7.5 7.5s7.5-3.358 7.5-7.5v-112.971c0-4.142-3.357-7.5-7.5-7.5h-282.841c-4.143 0-7.5 3.358-7.5 7.5v109.679h-36.625c-15.275 0-27.703 12.428-27.703 27.704v121.219c0 15.275 12.428 27.703 27.703 27.703h36.625zm282.84-315.44v15.305h-62.66c-2.941 0-5.61 1.719-6.828 4.396l-9.311 20.482c-2.056 4.523-6.595 7.446-11.564 7.446h-87.113c-4.97 0-9.509-2.923-11.564-7.446l-9.311-20.482c-1.218-2.678-3.887-4.396-6.828-4.396h-62.66v-15.305z"/></svg>