<?xml version="1.0" encoding="UTF-8"?>
<svg xmlns="http://www.w3.org/2000/svg" xmlns:xlink="http://www.w3.org/1999/xlink" width="1240pt" height="1240pt" viewBox="0 0 1240 1240" version="1.1">
<defs>
<linearGradient id="linear0" gradientUnits="userSpaceOnUse" x1="16.0191" y1="50.21" x2="92.569" y2="50.21" gradientTransform="matrix(12.4,0,0,12.4,0,0)">
<stop offset="0" style="stop-color:rgb(53.333333%,12.156863%,100%);stop-opacity:1;"/>
<stop offset="0.2415" style="stop-color:rgb(63.137255%,23.137255%,90.588235%);stop-opacity:1;"/>
<stop offset="0.7609" style="stop-color:rgb(87.843137%,51.764706%,66.666667%);stop-opacity:1;"/>
<stop offset="1" style="stop-color:rgb(100%,65.490196%,54.901961%);stop-opacity:1;"/>
</linearGradient>
</defs>
<g id="surface1">
<path style=" stroke:none;fill-rule:nonzero;fill:url(#linear0);" d="M 1147.867188 159.09375 L 1147.867188 714.488281 C 1147.867188 787.773438 1119.84375 852.5 1067.019531 909.789062 C 1008.738281 972.902344 974.390625 1011.34375 844.191406 1132.617188 C 713.992188 1253.886719 545.105469 1269.511719 407.214844 1187.796875 L 298.097656 1120.464844 C 340.257812 1137.078125 385.515625 1145.882812 432.265625 1145.882812 C 529.605469 1145.882812 613.800781 1106.949219 690.058594 1039.121094 C 690.058594 1039.121094 825.21875 914.253906 837.246094 900.734375 L 912.765625 816.292969 C 967.695312 754.167969 995.222656 692.292969 995.222656 617.023438 L 995.222656 6.695312 Z M 614.542969 292.765625 L 397.667969 641.328125 C 395.3125 645.046875 389.855469 645.171875 387.5 641.453125 L 308.386719 518.195312 L 198.648438 518.195312 L 311.238281 698.367188 C 328.847656 726.515625 359.601562 743.503906 392.707031 743.503906 C 425.816406 743.503906 456.691406 726.390625 474.175781 698.367188 L 727.507812 292.886719 L 614.542969 292.886719 Z M 614.542969 292.765625 "/>
</g>
</svg>
